#N canvas 355 255 902 595 10;
#X declare -lib oscx;
#X obj 487 98 s oscIn;
#X obj 718 6 import oscx;
#X obj 485 56 dumpOSC 8000;
#X text 77 -11 ARDUINO_OSC_UDP Test Patch;
#X obj 638 88 sendOSC;
#X msg 650 43 connect 192.168.11.200 8888;
#X msg 663 66 disconnect;
#X obj 638 7 r oscOut;
#X obj 104 178 arduino_osc_udp_widgets;
#X obj 805 15 loadbang;
#X text 77 9 see arduino_osc_udp_widgets for message format;
#X text 76 21 bjoern@cs.stanford.edu 12/2008;
#X connect 2 0 0 0;
#X connect 5 0 4 0;
#X connect 6 0 4 0;
#X connect 7 0 4 0;
#X connect 9 0 5 0;
